<svg width="14" height="11" viewBox="0 0 14 11" fill="none" xmlns="http://www.w3.org/2000/svg">
<path fill-rule="evenodd" clip-rule="evenodd" d="M0.04375 1.61063C0.131966 1.22409 0.348823 0.878961 0.658806 0.63177C0.968789 0.384578 1.35352 0.249973 1.75 0.25H12.25C12.6465 0.249973 13.0312 0.384578 13.3412 0.63177C13.6512 0.878961 13.868 1.22409 13.9563 1.61063L7 5.86225L0.04375 1.61063ZM0 2.60987V8.82587L5.07762 5.71263L0 2.60987ZM5.91587 6.22625L0.167125 9.74988C0.309161 10.0494 0.533336 10.3024 0.813559 10.4794C1.09378 10.6565 1.41853 10.7503 1.75 10.75H12.25C12.5814 10.7501 12.906 10.656 13.1861 10.4788C13.4662 10.3016 13.6902 10.0485 13.832 9.749L8.08325 6.22538L7 6.88775L5.91587 6.22538V6.22625ZM8.92237 5.7135L14 8.82587V2.60987L8.92237 5.71263V5.7135Z" fill="#6C757D"/>
</svg>
